<svg width="517" height="67" viewBox="0 0 517 67" fill="none" xmlns="http://www.w3.org/2000/svg">
<g clip-path="url(#clip0_242_62)">
<path d="M124.64 -0.0100403V67.1899L790.34 67.1899V-0.0100403L124.64 -0.0100403Z" fill="white"/>
<path d="M127.13 67.2C124.62 67.2 44.9399 49.2 44.9399 49.2L44.6299 15.59L127.13 0C127.13 0 137.7 3.28 139.93 11.47C142.16 19.66 129 26.22 129 26.22L140.17 33.6C139.75 41 129 50.81 129 50.81L139 56.89C139.12 66.72 127.13 67.2 127.13 67.2Z" fill="white"/>
<path d="M44.94 49.1701C43.33 48.8601 0 38.5001 0 33.6001C0 28.7001 44.68 15.6001 44.68 15.6001L44.94 49.1701Z" fill="white"/>
</g>
<defs>
<clipPath id="clip0_242_62">
<rect width="517" height="67" fill="white"/>
</clipPath>
</defs>
</svg>
