<svg width="336" height="111" viewBox="0 0 336 111" fill="none" xmlns="http://www.w3.org/2000/svg">
<g clip-path="url(#clip0_1_579)">
<path d="M30.0247 111L309.631 111C324.194 111 336 102.83 336 92.7507V18.2493C336 8.17049 324.194 0 309.631 0L30.0247 0C15.4616 0 3.65594 8.17049 3.65594 18.2493V92.7507C3.65594 102.83 15.4616 111 30.0247 111Z" fill="#D1CFC5"/>
<path d="M30.0392 111H150.037V0H30.0392C23.0457 0 16.3387 1.92269 11.3936 5.3451C6.44854 8.76751 3.67041 13.4093 3.67041 18.2493V92.7507C3.67041 97.5907 6.44854 102.232 11.3936 105.655C16.3387 109.077 23.0457 111 30.0392 111Z" fill="#94A4B2"/>
<path d="M26.3687 111H59.013C55.5478 111.003 52.1158 110.533 48.9133 109.617C45.7108 108.701 42.8005 107.357 40.3489 105.662C37.8973 103.967 35.9524 101.954 34.6254 99.739C33.2985 97.5236 32.6155 95.1489 32.6155 92.7507V18.2493C32.6155 15.8511 33.2985 13.4764 34.6254 11.261C35.9524 9.0456 37.8973 7.03292 40.3489 5.33806C42.8005 3.64319 45.7108 2.29938 48.9133 1.38343C52.1158 0.467493 55.5478 -0.00260726 59.013 1.08759e-05H26.3687C19.3753 1.08759e-05 12.6683 1.9227 7.72323 5.34511C2.77813 8.76752 0 13.4093 0 18.2493L0 92.7507C0 97.5907 2.77813 102.232 7.72323 105.655C12.6683 109.077 19.3753 111 26.3687 111Z" fill="#83919B"/>
<path opacity="0.46" d="M321.837 99.8332C326.428 96.6157 326.673 91.5851 326.63 87.0726C326.63 83.2973 326.558 42.1566 326.529 38.3813C326.529 35.2633 326.428 32.0159 324.399 29.2367C322.96 27.2444 319.894 25.5111 316.842 26.1486C313.086 26.9256 312.524 30.3922 312.654 33.1216C312.836 36.4421 313.018 39.7626 313.201 43.083C313.445 47.5557 313.201 90.1906 307.861 92.7506C303.802 94.7429 298.39 94.2548 293.467 93.9858C285.426 93.5599 277.339 93.8445 269.402 94.8326C265.343 95.3406 260.276 97.054 261.025 99.8133C261.615 102.065 265.544 102.931 268.826 103.25C280.758 104.396 312.136 106.647 321.837 99.8332Z" fill="white"/>
</g>
<defs>
<clipPath id="clip0_1_579">
<rect width="336" height="111" fill="white"/>
</clipPath>
</defs>
</svg>
