<svg width="336" height="317" viewBox="0 0 336 317" fill="none" xmlns="http://www.w3.org/2000/svg">
<path d="M51.9772 141.627L152.907 35.5205C162.871 25.0454 179.467 24.7103 189.846 34.7746L316.777 157.86C327.301 168.065 327.312 184.947 316.802 195.166L209.881 299.128C199.688 309.039 183.424 308.924 173.371 298.871L52.4309 177.931C42.4563 167.956 42.2549 151.847 51.9772 141.627Z" fill="#94A4B2" stroke="#94A4B2"/>
<circle cx="15.5" cy="15.5" r="15.5" transform="matrix(-1 0 0 1 187.92 101.978)" fill="#D9D9D9"/>
<path d="M175.418 107.976C203.585 47.9763 259 -31 250 25.9998C242.506 73.4615 239.498 80.9989 238.498 81.9989" stroke="#D9D9D9" stroke-width="12"/>
<path d="M307 149L166.5 291.5" stroke="#D9D9D9" stroke-width="6"/>
<path d="M194 37L53.5 179.5" stroke="#D9D9D9" stroke-width="6"/>
<path d="M0 237.263C0 263.021 15.2223 273 34 273C52.7777 273 68 263.021 68 237.263C68 211.504 34 167 34 167C34 167 0 211.504 0 237.263Z" fill="#D9D9D9"/>
</svg>
